<svg xmlns="http://www.w3.org/2000/svg" xmlns:xlink="http://www.w3.org/1999/xlink" id="Layer_1" x="0px" y="0px" viewBox="0 0 554 688" style="enable-background:new 0 0 554 688;" xml:space="preserve"> <style type="text/css"> .st0{display:none;fill:#FEFEFE;} .st1{fill:#1E70B6;} .st2{fill:#39A935;} .st3{fill:#2675B9;} .st4{fill:#2373B8;} .st5{fill:#2E7ABC;} .st6{fill:#078F3B;} </style> <g> <path class="st0" d="M313.6,528.2c0.3,0.3,0.6,0.5,0.9,0.8c7.8-7,15.7-13.8,23.3-20.9C390,459,437.2,405.7,471.3,342 c34.8-65,45.5-133.8,27.8-205.6c-13-52.5-43.3-91.9-95.2-111.9c-48.4-18.7-93.1-7.4-126.8,31.7c-15.4,17.8-27.4,37.8-33.9,60.5 c-14.6,51-9.1,98.7,26.9,140.1c10,11.5,21.2,21.9,31.9,32.9c30.9,31.5,52.1,67.4,48.5,113.5c-2,26.6-9.8,52-18.6,77.1 C326.2,496.3,319.7,512.2,313.6,528.2z M189.8,544.6c78.8,0.5,143.8-63.8,144.3-142.6c0.5-80-63.2-144.7-143-145.3 c-80-0.6-144.7,63.7-145.1,144C45.6,479.5,110.2,544.1,189.8,544.6z M295.3,649.7c4.3,4.7,7.3,9.1,11.3,12.1 c18.3,13.9,52.5,13.4,70.7-0.6c6.2-4.8,9.4-10.8,9.2-18.7c-0.2-8.3-0.2-16.5,0-24.8c0.2-9.2-3.4-16.4-10.2-22.4 c-19.1-16.5-52.9-17.1-72.5-1.2c-15.3,12.3-15.3,30.5,0,42.9c12.4,10,26.9,13.4,42.3,11.1c9.2-1.4,18.1-4.9,27-7.5 c1.2,6.4,0.2,9.8-4.7,14.5c-13.7,13.3-43.8,13.2-56.3-1.1C307.4,648.8,302.9,648.7,295.3,649.7z M110.5,594c-3.4-1.9-5.4-3-7.3-4 c-19.8-10.3-46.8-8-63,5.4c-15.1,12.5-15,30.7,0.2,42.9c19.8,15.9,54.2,15.3,72.9-1.9c4.1-3.8,8.5-9.8,8.8-15 c1-19.1,0.4-38.4,0.4-57.8c-3.9,0-7.6,0-11.9,0C110.5,573.5,110.5,583.1,110.5,594z M149.1,619c27.2,0,54.1,0,80.8,0 c1.3-10.3-2.9-17.3-9.8-23.1c-19.3-16.6-52.3-17.3-72.5-1.6c-16.5,12.9-16.3,31.5,0.4,44.1c18.7,14.1,49.4,14.9,68.4,1.4 c4.2-3,7.6-7.3,11.3-11.1c-0.5-0.9-1-1.8-1.6-2.7c-4.5,1.2-10.6,1-13.1,3.9c-10.9,12.9-40.4,14.5-55.1,3.8 C153.6,630.2,149.3,626.4,149.1,619z M479.6,647.5c0-9.5,0-18.2,0-26.9c0-22.4-11.2-34.3-33.8-36.4c-12.3-1.2-23.6,1.1-35,8.9 c0-11,0-20.4,0-30c-4.3,0-8,0-11.6,0c0,28.4,0,56.3,0,84.1c4.1,0,7.7,0,11.8,0c0-10.3,0-20,0-29.7c0-15.7,5.3-22.1,20.8-25.1 c21.8-4.2,35.2,6.9,35.2,28.9c0,8.7,0,17.3,0,26.2C471.6,647.5,475,647.5,479.6,647.5z M503.7,563.3c-5,0-8.8,0-12.9,0 c0,22.4-0.1,44.2,0,65.9c0,7.8,3.8,13.8,11.2,16.1c6.9,2.2,14.3,3.1,22.6,4.8c-0.2-3.9-0.3-6-0.4-7.9c-3.7-0.5-6.7-0.6-9.6-1.4 c-5.3-1.4-10.4-3.9-10.6-10.1c-0.4-12.4-0.1-24.8-0.1-38c7.1,0,13.5,0,20.3,0c0-3.1,0-5.4,0-8.4c-6.9,0-13.3,0-20.3,0 C503.7,577.1,503.7,570.4,503.7,563.3z M253.1,647.4c0-16.8,0-32.8,0-48.8c0-1.2,0.1-2.7-0.5-3.6c-6.8-10.5-6.2-21.1,0.4-31.9 c-4.4,0-8,0-11.6,0c0,28.4,0,56.3,0,84.4C245.3,647.4,248.8,647.4,253.1,647.4z M261.8,579.8c0.1,8.2,6.6,14.8,14.7,14.9 c8.2,0.1,15.3-7.1,15.2-15.3c-0.1-8.4-7.1-14.9-15.6-14.7C267.8,565,261.7,571.5,261.8,579.8z M267.1,647.4c3.9,0,7.7,0,11.8,0 c0-14.3,0-28.3,0-42.3c-4.2,0-7.8,0-11.8,0C267.1,618.9,267.1,632.6,267.1,647.4z"></path> <path class="st1" d="M313.6,528.2c6.1-16,12.7-31.8,18.3-48c8.8-25,16.6-50.5,18.6-77.1c3.5-46.1-17.7-81.9-48.5-113.5 c-10.7-10.9-21.9-21.4-31.9-32.9c-36-41.4-41.5-89-26.9-140.1c6.5-22.6,18.5-42.6,33.9-60.5c33.8-39.1,78.4-50.4,126.8-31.7 c51.9,20,82.3,59.4,95.2,111.9c17.7,71.8,7,140.6-27.8,205.6c-34.1,63.7-81.3,116.9-133.6,166c-7.6,7.1-15.5,13.9-23.3,20.9 C314.2,528.7,313.9,528.4,313.6,528.2z"></path> <path class="st2" d="M189.8,544.6C110.2,544.1,45.6,479.5,46,400.7c0.4-80.3,65.1-144.6,145.1-144c79.8,0.6,143.5,65.3,143,145.3 C333.6,480.8,268.6,545,189.8,544.6z"></path> <path class="st3" d="M295.3,649.7c7.6-1,12.1-0.9,16.8,4.4c12.5,14.3,42.6,14.4,56.3,1.1c4.9-4.8,5.9-8.1,4.7-14.5 c-9,2.5-17.8,6.1-27,7.5c-15.4,2.3-29.9-1.1-42.3-11.1c-15.3-12.4-15.3-30.5,0-42.9c19.6-15.9,53.4-15.3,72.5,1.2 c6.8,5.9,10.5,13.2,10.2,22.4c-0.2,8.3-0.2,16.5,0,24.8c0.2,7.9-3.1,14-9.2,18.7c-18.2,14-52.4,14.5-70.7,0.6 C302.5,658.8,299.6,654.4,295.3,649.7z M339.4,640.2c11.2,0.1,20.3-3,27-9.1c9.8-8.9,10-21,0.5-30.2c-14.4-13.8-42.2-13.2-56.1,1.1 c-8.4,8.7-8.1,20.3,0.9,28.4C319.6,637.5,329,640.3,339.4,640.2z"></path> <path class="st4" d="M110.5,594c0-10.8,0-20.5,0-30.4c4.3,0,8,0,11.9,0c0,19.4,0.6,38.7-0.4,57.8c-0.3,5.2-4.6,11.1-8.8,15 c-18.7,17.2-53.1,17.8-72.9,1.9C25.1,626,25,607.8,40.1,595.3c16.2-13.4,43.2-15.7,63-5.4C105.1,591,107.1,592.1,110.5,594z M76,591.9c-10.7,0.1-20.3,3.3-27,9.3c-10,8.8-10.4,20.9-0.8,30c14.2,13.6,41.4,13.7,55.6,0.1c9.4-9,9.1-21.6-0.7-30.1 C95.2,594.4,86,591.8,76,591.9z"></path> <path class="st4" d="M149.1,619c0.2,7.4,4.4,11.2,9.1,14.6c14.6,10.7,44.2,9.1,55.1-3.8c2.4-2.9,8.6-2.7,13.1-3.9 c0.5,0.9,1,1.8,1.6,2.7c-3.7,3.7-7,8-11.3,11.1c-19,13.5-49.7,12.8-68.4-1.4c-16.7-12.6-16.9-31.2-0.4-44.1 c20.1-15.7,53.1-15,72.5,1.6c6.8,5.8,11,12.8,9.8,23.1C203.2,619,176.4,619,149.1,619z M217.1,611.2c-4.3-13.9-20.3-21.2-40.4-19.2 c-14.2,1.4-25.8,9.7-26.9,19.2C172.1,611.2,194.3,611.2,217.1,611.2z"></path> <path class="st4" d="M479.6,647.5c-4.6,0-8,0-12.6,0c0-8.9,0-17.5,0-26.2c0-22-13.4-33.1-35.2-28.9c-15.5,2.9-20.8,9.3-20.8,25.1 c0,9.7,0,19.5,0,29.7c-4.1,0-7.7,0-11.8,0c0-27.8,0-55.7,0-84.1c3.6,0,7.3,0,11.6,0c0,9.6,0,19,0,30c11.3-7.8,22.7-10.1,35-8.9 c22.6,2.2,33.8,14.1,33.8,36.4C479.6,629.3,479.6,638,479.6,647.5z"></path> <path class="st5" d="M503.7,563.3c0,7.1,0,13.8,0,21.1c7,0,13.4,0,20.3,0c0,3,0,5.3,0,8.4c-6.8,0-13.2,0-20.3,0 c0,13.2-0.3,25.6,0.1,38c0.2,6.2,5.3,8.7,10.6,10.1c2.9,0.7,5.9,0.9,9.6,1.4c0.1,2,0.2,4,0.4,7.9c-8.2-1.7-15.6-2.5-22.6-4.8 c-7.4-2.4-11.1-8.3-11.2-16.1c-0.1-21.8,0-43.5,0-65.9C494.9,563.3,498.7,563.3,503.7,563.3z"></path> <path class="st4" d="M253.1,647.4c-4.4,0-7.8,0-11.7,0c0-28.1,0-56,0-84.4c3.6,0,7.2,0,11.6,0c-6.7,10.9-7.3,21.4-0.4,31.9 c0.6,0.9,0.5,2.4,0.5,3.6C253.1,614.6,253.1,630.6,253.1,647.4z"></path> <path class="st6" d="M261.8,579.8c-0.1-8.3,6-14.8,14.2-15.1c8.5-0.3,15.5,6.3,15.6,14.7c0.1,8.2-7,15.4-15.2,15.3 C268.4,594.5,261.9,588,261.8,579.8z"></path> <path class="st5" d="M267.1,647.4c0-14.8,0-28.4,0-42.3c4,0,7.7,0,11.8,0c0,14,0,28,0,42.3C274.8,647.4,271,647.4,267.1,647.4z"></path> </g> </svg>